<?xml version="1.0" ?><svg viewBox="0 0 128 128" xmlns="http://www.w3.org/2000/svg"><defs><style>.cls-1{fill:#f47c27;}.cls-2{fill:#f69652;}.cls-3{fill:#d2423f;}.cls-4{fill:#333;}.cls-5{fill:#4d4d4d;}.cls-6{fill:#1f1f1f;}</style></defs><title/><g data-name="37 Basketball" id="_37_Basketball"><circle class="cls-1" cx="64" cy="64" r="48" transform="translate(-26.51 64) rotate(-45)"/><path class="cls-2" d="M31.23,31.23a48,48,0,0,1,67.28-.57A48,48,0,1,0,30.66,98.51,48,48,0,0,1,31.23,31.23Z"/><path class="cls-3" d="M95.89,28.13A48,48,0,0,1,28.13,95.89,48,48,0,1,0,95.89,28.13Z"/><path class="cls-4" d="M77,79.85,96.49,99.32a39.63,39.63,0,0,0,2.83-2.83L79.85,77A2.2,2.2,0,0,1,80,73.77a45.94,45.94,0,0,1,32-10.4c0-1.34-.08-2.68-.21-4A49.91,49.91,0,0,0,76.85,71.19a2.18,2.18,0,0,1-3-.13l-5.51-5.51a2.2,2.2,0,0,1,0-3.1L99.32,31.51a39.63,39.63,0,0,0-2.83-2.83L65.55,59.62a2.2,2.2,0,0,1-3.1,0l-5.51-5.51a2.18,2.18,0,0,1-.13-3A49.91,49.91,0,0,0,68.64,16.22c-1.33-.13-2.67-.19-4-.21a45.94,45.94,0,0,1-10.4,32,2.2,2.2,0,0,1-3.25.15L31.51,28.68a39.63,39.63,0,0,0-2.83,2.83L48.15,51A2.2,2.2,0,0,1,48,54.23a45.94,45.94,0,0,1-32,10.4c0,1.34.08,2.68.21,4A49.91,49.91,0,0,0,51.15,56.81a2.18,2.18,0,0,1,3,.13l5.51,5.51a2.2,2.2,0,0,1,0,3.1L28.68,96.49a39.63,39.63,0,0,0,2.83,2.83L62.45,68.38a2.2,2.2,0,0,1,3.1,0l5.51,5.51a2.18,2.18,0,0,1,.13,3,49.91,49.91,0,0,0-11.84,34.93c1.33.13,2.67.19,4,.21a45.94,45.94,0,0,1,10.4-32A2.2,2.2,0,0,1,77,79.85Z"/><path class="cls-5" d="M68.67,17.31c0-.36,0-.73,0-1.09-.3,0-2.38-.19-4-.21,0,.39,0,.78,0,1.16C66,17.17,67.34,17.22,68.67,17.31Z"/><path class="cls-5" d="M17.31,68.67c-.1-1.33-.15-2.66-.13-4l-1.16,0c0,1.68.16,3.63.21,4Z"/><path class="cls-5" d="M28.76,96.41l-.08.08c1.35,1.47,1.31,1.38,2,2C30,97.83,29.37,97.13,28.76,96.41Z"/><path class="cls-5" d="M29.85,32.68c1.1-1.19,1.63-1.72,2.83-2.83l-1.17-1.17a39.63,39.63,0,0,0-2.83,2.83Z"/><path class="cls-5" d="M96.41,28.76c.71.61,1.41,1.24,2.1,1.9-.64-.67-.55-.63-2-2Z"/><path class="cls-6" d="M59.33,108c0,1.26,0,2.51,0,3.77,1.44.14,2.86.19,4,.21-.08-1.36-.09-2.73-.05-4.09Q61.32,108,59.33,108Z"/><path class="cls-6" d="M96.42,28.75c.88,1,1.72,2.07,2.5,3.15l.4-.4a35.16,35.16,0,0,0-2.84-2.82Z"/><path class="cls-6" d="M112,63.37c0-1.66-.18-3.84-.21-4-1.26-.06-2.51-.06-3.77,0q0,2-.11,4C109.26,63.28,110.62,63.29,112,63.37Z"/><path class="cls-6" d="M31.91,98.92c-1.08-.78-2.13-1.62-3.15-2.5l-.07.07a35.15,35.15,0,0,0,2.82,2.84Z"/><path class="cls-6" d="M95.34,92.51c-1.07,1.16-1.67,1.76-2.83,2.83l4,4a39.63,39.63,0,0,0,2.83-2.83Z"/></g></svg>